<svg id="Layer_1" data-name="Layer 1" xmlns="http://www.w3.org/2000/svg" viewBox="0 0 116.32 211.62"><defs><style>.cls-1{fill:#754c24;}.cls-2{fill:#603813;}</style></defs><title>root branch for tree on running game</title><path class="cls-1" d="M851.92,198.28c6,5.33,13.77,8.08,20.32,12.67,13.63,9.55,20.45,25.9,26.6,41.37l20,50.23c5.46,13.75,11,28.41,8.34,43s-17.25,27.91-31.4,23.6c11.54-11.88,8.23-31.19,4.14-47.24-3.69-14.46-7.6-29.4-16.88-41.09-5.31-6.69-12.14-12-18-18.18-8.57-9-15.07-19.69-21.5-30.31-9.56-15.8-42.82-50.9-26.23-69.68C833.44,144.26,842.08,190.08,851.92,198.28Z" transform="translate(-812.68 -158.31)"/><path class="cls-2" d="M857.36,222.17c3.16,3.3,7.54,5.65,11.66,4.36,3.29-1,5.74-4.14,7.81-7.26A91.6,91.6,0,0,0,890,187c-10.81,5-21.77,9.73-32.46,15.07-3.39,1.69-6.79,3-6.76,7.88S857.36,218.89,857.36,222.17Z" transform="translate(-812.68 -158.31)"/><path class="cls-2" d="M896.36,274.17c3.16,3.3,7.54,5.65,11.66,4.36,3.29-1,5.74-4.14,7.81-7.26A91.6,91.6,0,0,0,929,239c-10.81,5-21.77,9.73-32.46,15.07-3.39,1.69-6.79,3-6.76,7.88S896.36,270.89,896.36,274.17Z" transform="translate(-812.68 -158.31)"/><path class="cls-2" d="M863.42,248.72c-3.16-3.3-7.54-5.65-11.66-4.36-3.29,1-5.74,4.14-7.81,7.26a91.6,91.6,0,0,0-13.17,32.27c10.81-5,21.77-9.73,32.46-15.07,3.39-1.69,6.79-3,6.76-7.88S863.42,252,863.42,248.72Z" transform="translate(-812.68 -158.31)"/><path class="cls-2" d="M904.42,304.72c-3.16-3.3-7.54-5.65-11.66-4.36-3.29,1-5.74,4.14-7.81,7.26a91.6,91.6,0,0,0-13.17,32.27c10.81-5,21.77-9.73,32.46-15.07,3.39-1.69,6.79-3,6.76-7.88S904.42,308,904.42,304.72Z" transform="translate(-812.68 -158.31)"/></svg>
