<svg id="Layer_1" data-name="Layer 1" xmlns="http://www.w3.org/2000/svg" viewBox="0 0 380.33 510.44"><defs><style>.cls-1,.cls-2{stroke:#000;stroke-miterlimit:10;}.cls-2{fill:none;}.cls-3{fill:#fff;}</style></defs><title>Stickman for Running Game</title><path class="cls-1" d="M749.88,471.13l4.52,12.06,43.45,116.12-33.27,12.45L721.42,496.43,656,465.71l-9,54.7-3.11,19L632.7,550.61l-81.63,81.62L526,607.11l85.43-85.43L624,444.83v-139l-73-34.29-72.08,48.05-19.41-29.12,87.84-58.56.67-.44,6.36,3,69.6,32.7v-18a65,65,0,1,1,44,0v16.08l73.81,34.68,77.25-51.5,19.41,29.12-90.93,60.62-1.2,2.56L668,303.92V432.66l69.13,32.48,12.75,6" transform="translate(-458.84 -122.5)"/><line class="cls-2" x1="95.56" y1="111.94" x2="89.2" y2="108.95"/><polygon class="cls-3" points="89.2 108.95 88.53 109.39 88.82 108.77 89.2 108.95"/><polygon points="88.82 108.77 88.53 109.39 89.2 108.95 88.82 108.77 88.82 108.77"/><line class="cls-2" x1="295.56" y1="360.69" x2="291.04" y2="348.63"/><line class="cls-2" x1="291.04" y1="348.63" x2="278.29" y2="342.64"/></svg>
