<svg id="Layer_1" data-name="Layer 1" xmlns="http://www.w3.org/2000/svg" viewBox="0 0 379 578"><defs><style>.cls-1{fill:#754c24;}.cls-2{fill:#009245;}.cls-3{fill:#d81919;}.cls-4{fill:none;stroke:#603813;stroke-miterlimit:10;stroke-width:4px;}</style></defs><title>Tree for running game</title><path class="cls-1" d="M671,448.43V659H591V440.6a178.06,178.06,0,0,0,57.5,9.14A191.55,191.55,0,0,0,671,448.43Z" transform="translate(-425 -81)"/><path class="cls-2" d="M750.8,339.38C758.6,349.79,763,361.55,763,374c0,37.35-39.54,68.49-92,75.51A168.71,168.71,0,0,1,648.5,451,158.6,158.6,0,0,1,591,440.6c-16.2-6.34-29.87-15.27-39.76-26C480.49,410.62,425,372,425,325c0-28.51,20.4-53.92,52.23-70.41A121.71,121.71,0,0,1,470,213c0-61.86,45.44-112,101.5-112a92.8,92.8,0,0,1,35.44,7A93.41,93.41,0,0,1,672.5,81c52.74,0,95.5,44.32,95.5,99,0,.15,0,.29,0,.44A94.25,94.25,0,0,1,750.8,339.38Z" transform="translate(-425 -81)"/><ellipse cx="206" cy="433" rx="13" ry="29"/><path class="cls-3" d="M509.9,319.55c0,9.09-6,16.45-13.3,16.45a11.33,11.33,0,0,1-6.65-2.21A11.33,11.33,0,0,1,483.3,336c-7.34,0-13.3-7.36-13.3-16.45s6-16.45,13.3-16.45a11.28,11.28,0,0,1,6.65,2.21,11.28,11.28,0,0,1,6.65-2.21C503.94,303.1,509.9,310.46,509.9,319.55Z" transform="translate(-425 -81)"/><path class="cls-4" d="M490.37,306.59c-.47-5.19,3.32-10.46,9-12.59" transform="translate(-425 -81)"/><path class="cls-3" d="M579.9,359.55c0,9.09-6,16.45-13.3,16.45a11.33,11.33,0,0,1-6.65-2.21A11.33,11.33,0,0,1,553.3,376c-7.34,0-13.3-7.36-13.3-16.45s6-16.45,13.3-16.45a11.28,11.28,0,0,1,6.65,2.21,11.28,11.28,0,0,1,6.65-2.21C573.94,343.1,579.9,350.46,579.9,359.55Z" transform="translate(-425 -81)"/><path class="cls-4" d="M560.37,346.59c-.47-5.19,3.32-10.46,9-12.59" transform="translate(-425 -81)"/><path class="cls-3" d="M653.9,409.55c0,9.09-6,16.45-13.3,16.45a11.33,11.33,0,0,1-6.65-2.21A11.33,11.33,0,0,1,627.3,426c-7.34,0-13.3-7.36-13.3-16.45s6-16.45,13.3-16.45a11.28,11.28,0,0,1,6.65,2.21,11.28,11.28,0,0,1,6.65-2.21C647.94,393.1,653.9,400.46,653.9,409.55Z" transform="translate(-425 -81)"/><path class="cls-4" d="M634.37,396.59c-.47-5.19,3.32-10.46,9-12.59" transform="translate(-425 -81)"/><path class="cls-3" d="M756.9,241.55c0,9.09-6,16.45-13.3,16.45a11.33,11.33,0,0,1-6.65-2.21A11.33,11.33,0,0,1,730.3,258c-7.34,0-13.3-7.36-13.3-16.45s6-16.45,13.3-16.45a11.28,11.28,0,0,1,6.65,2.21,11.28,11.28,0,0,1,6.65-2.21C750.94,225.1,756.9,232.46,756.9,241.55Z" transform="translate(-425 -81)"/><path class="cls-4" d="M737.37,228.59c-.47-5.19,3.32-10.46,9-12.59" transform="translate(-425 -81)"/><path class="cls-3" d="M569.9,190.55c0,9.09-6,16.45-13.3,16.45a11.33,11.33,0,0,1-6.65-2.21A11.33,11.33,0,0,1,543.3,207c-7.34,0-13.3-7.36-13.3-16.45s6-16.45,13.3-16.45a11.28,11.28,0,0,1,6.65,2.21,11.28,11.28,0,0,1,6.65-2.21C563.94,174.1,569.9,181.46,569.9,190.55Z" transform="translate(-425 -81)"/><path class="cls-4" d="M550.37,177.59c-.47-5.19,3.32-10.46,9-12.59" transform="translate(-425 -81)"/><path class="cls-3" d="M679.9,311.55c0,9.09-6,16.45-13.3,16.45a11.33,11.33,0,0,1-6.65-2.21A11.33,11.33,0,0,1,653.3,328c-7.34,0-13.3-7.36-13.3-16.45s6-16.45,13.3-16.45a11.28,11.28,0,0,1,6.65,2.21,11.28,11.28,0,0,1,6.65-2.21C673.94,295.1,679.9,302.46,679.9,311.55Z" transform="translate(-425 -81)"/><path class="cls-4" d="M660.37,298.59c-.47-5.19,3.32-10.46,9-12.59" transform="translate(-425 -81)"/><path class="cls-3" d="M679.9,195.55c0,9.09-6,16.45-13.3,16.45a11.33,11.33,0,0,1-6.65-2.21A11.33,11.33,0,0,1,653.3,212c-7.34,0-13.3-7.36-13.3-16.45s6-16.45,13.3-16.45a11.28,11.28,0,0,1,6.65,2.21,11.28,11.28,0,0,1,6.65-2.21C673.94,179.1,679.9,186.46,679.9,195.55Z" transform="translate(-425 -81)"/><path class="cls-4" d="M660.37,182.59c-.47-5.19,3.32-10.46,9-12.59" transform="translate(-425 -81)"/><path class="cls-3" d="M747.9,395.55c0,9.09-6,16.45-13.3,16.45a11.33,11.33,0,0,1-6.65-2.21A11.33,11.33,0,0,1,721.3,412c-7.34,0-13.3-7.36-13.3-16.45s6-16.45,13.3-16.45a11.28,11.28,0,0,1,6.65,2.21,11.28,11.28,0,0,1,6.65-2.21C741.94,379.1,747.9,386.46,747.9,395.55Z" transform="translate(-425 -81)"/><path class="cls-4" d="M728.37,382.59c-.47-5.19,3.32-10.46,9-12.59" transform="translate(-425 -81)"/><path class="cls-3" d="M599.9,262.55c0,9.09-6,16.45-13.3,16.45a11.33,11.33,0,0,1-6.65-2.21A11.33,11.33,0,0,1,573.3,279c-7.34,0-13.3-7.36-13.3-16.45s6-16.45,13.3-16.45a11.28,11.28,0,0,1,6.65,2.21,11.28,11.28,0,0,1,6.65-2.21C593.94,246.1,599.9,253.46,599.9,262.55Z" transform="translate(-425 -81)"/><path class="cls-4" d="M580.37,249.59c-.47-5.19,3.32-10.46,9-12.59" transform="translate(-425 -81)"/></svg>
